<?xml version="1.0" encoding="UTF-8"?>
<svg version="1.1" xmlns="http://www.w3.org/2000/svg" width="2254" height="918">
<path d="M0 0 C2.50097656 1.30004883 2.50097656 1.30004883 5.140625 2.95703125 C6.6105188 3.87512573 6.6105188 3.87512573 8.11010742 4.81176758 C9.14627197 5.47200928 10.18243652 6.13225098 11.25 6.8125 C12.32032471 7.48885498 13.39064941 8.16520996 14.4934082 8.86206055 C36.71492608 23.00695935 58.20707264 38.93711546 77.59375 56.8046875 C78.895954 57.99273725 80.2054259 59.17383435 81.55102539 60.3125 C88.20050675 65.96815611 94.3312405 72.14515631 100.49926758 78.31396484 C102.42444702 80.23696182 104.35749031 82.15180574 106.29101562 84.06640625 C112.61613067 90.36345442 118.65499169 96.68586901 124.17700195 103.70947266 C125.9513771 105.93890719 127.81344264 108.03606573 129.75 110.125 C135.9565063 117.04433277 141.44695027 124.55523458 147 132 C147.54881836 132.73460449 148.09763672 133.46920898 148.66308594 134.22607422 C173.47251572 167.58818964 193.48007929 204.47395162 209 243 C209.43940918 244.08974121 209.87881836 245.17948242 210.33154297 246.30224609 C242.04280487 325.99465248 250.64724812 414.55441492 204.78881836 617.0324707 C200.50741783 626.77596537 196.02136406 636.40654288 191.11035156 645.84863281 C189.84328548 648.303643 188.60589083 650.77274963 187.3671875 653.2421875 C171.77176788 684.05899132 152.13637069 712.53024516 130 739 C129.55962402 739.52674316 129.11924805 740.05348633 128.66552734 740.59619141 C117.72370244 753.6388467 106.16387028 766.08837588 94 778 C90.37003734 776.79001245 90.05423027 775.92160035 88.13671875 772.71484375 C87.58685303 771.80420166 87.0369873 770.89355957 86.47045898 769.95532227 C85.88208252 768.95944092 85.29370605 767.96355957 84.6875 766.9375 C83.76142944 765.39050415 83.76142944 765.39050415 82.81665039 763.81225586 C80.8676271 760.54741332 78.93281881 757.27445695 77 754 C76.40123047 752.99227539 75.80246094 751.98455078 75.18554688 750.94628906 C48.39870125 705.84175 25.42448934 658.91990069 6.5 610 C6.21561066 609.2700885 5.93122131 608.540177 5.63821411 607.78814697 C4.8427068 605.73736702 4.05967357 603.68231612 3.28125 601.625 C2.83845703 600.46226562 2.39566406 599.29953125 1.93945312 598.1015625 C1.04206132 595.13886357 0.65218051 593.06068061 1 590 C2.39998148 587.63259916 3.78699639 585.55162043 5.4375 583.375 C6.12030029 582.44977539 6.12030029 582.44977539 6.81689453 581.50585938 C11.02659672 575.85003163 15.44880835 570.38408947 20 565 C20.90134494 563.91170944 21.80237194 562.8231555 22.703125 561.734375 C33.36654915 548.95310902 44.89731735 537.28788547 58 527 C58.82113281 526.30003906 59.64226562 525.60007812 60.48828125 524.87890625 C73.4198565 513.87038771 87.98772928 504.87711998 103 497 C103.66386719 496.64373535 104.32773437 496.2874707 105.01171875 495.92041016 C117.52888107 489.2773733 130.69546383 484.87141335 144.14233398 480.54150391 C145.20609001 480.19860825 145.20609001 480.19860825 146.29133606 479.8487854 C148.24567436 479.22148766 150.20212683 478.6007878 152.15869141 477.98046875 C154.86858194 477.27734121 154.86858194 477.27734121 156 476 C155.71269945 473.66055264 155.38063221 471.3260857 155 469 C147.89350678 468.34180092 141.84597892 470.71106106 135.1875 473 C133.98496582 473.40863281 132.78243164 473.81726563 131.54345703 474.23828125 C121.75039787 477.62450698 112.29645239 481.43059493 103 486 C102.3188916 486.3290332 101.6377832 486.65806641 100.93603516 486.99707031 C80.03978883 497.18675933 60.49853153 510.88982186 43.484375 526.69921875 C41.33997488 528.68514905 39.15956407 530.60235728 36.9375 532.5 C26.70996167 541.4071799 17.9846741 551.52312912 9.4375 562 C8.89504639 562.66467285 8.35259277 563.3293457 7.79370117 564.01416016 C4.48422195 568.09593483 1.32267225 572.24485294 -1.71850586 576.53125 C-2.14139893 577.0159375 -2.56429199 577.500625 -3 578 C-3.66 578 -4.32 578 -5 578 C-6.51441098 573.21775067 -8.02592183 568.43459731 -9.53491211 563.65063477 C-10.04716357 562.02799585 -10.56016585 560.40559374 -11.07397461 558.78344727 C-19.85326258 531.06072976 -19.85326258 531.06072976 -19 526 C-17.234375 523.0625 -17.234375 523.0625 -14.75 520 C-14.07771362 519.1646875 -14.07771362 519.1646875 -13.3918457 518.3125 C-11.94427377 516.52750162 -10.47419185 514.76305051 -9 513 C-8.5241748 512.42121094 -8.04834961 511.84242188 -7.55810547 511.24609375 C2.82899245 498.62486977 14.00087441 486.96194671 27 477 C27.55381348 476.56977539 28.10762695 476.13955078 28.67822266 475.69628906 C37.97079169 468.50813108 47.55951211 462.38304235 58 457 C58.74266113 456.61569824 59.48532227 456.23139648 60.25048828 455.83544922 C70.44218007 450.62894085 80.65128116 446.51194271 91.6328125 443.2890625 C92.34469727 443.07797852 93.05658203 442.86689453 93.79003906 442.64941406 C95.3508207 442.19076634 96.91575095 441.74612488 98.48339844 441.31152344 C99.29067383 441.07208008 100.09794922 440.83263672 100.9296875 440.5859375 C101.66171387 440.37759277 102.39374023 440.16924805 103.14794922 439.95458984 C105.57984762 438.70113311 106.15834222 437.57310244 107 435 C106.67 434.01 106.34 433.02 106 432 C99.86628059 430.61867981 95.54729831 431.58763311 89.625 433.5 C88.74577881 433.77626221 87.86655762 434.05252441 86.96069336 434.3371582 C53.81715468 444.98840997 26.20568986 463.24576138 1 487 C0.2678125 487.68964844 -0.464375 488.37929688 -1.21875 489.08984375 C-5.82007653 493.55422603 -9.86472967 498.37207696 -13.87890625 503.3671875 C-16.51665382 506.64129774 -19.24659347 509.82299246 -22 513 C-22.66 512.67 -23.32 512.34 -24 512 C-24.72650331 509.39351674 -25.33050821 506.84108978 -25.875 504.1953125 C-26.04499512 503.40156219 -26.21499023 502.60781189 -26.39013672 501.79000854 C-26.93472549 499.23662357 -27.46728351 496.68088527 -28 494.125 C-28.35863233 492.43994593 -28.71799888 490.75504795 -29.078125 489.0703125 C-30.07541111 484.38488645 -31.04338472 479.69387698 -32 475 C-32.22945313 473.88850586 -32.45890625 472.77701172 -32.6953125 471.63183594 C-35.32913086 458.20770889 -35.32913086 458.20770889 -32.15625 452.9375 C-31.2796875 451.968125 -30.403125 450.99875 -29.5 450 C-29.01370117 449.45875488 -28.52740234 448.91750977 -28.02636719 448.35986328 C-26.37598254 446.54812818 -24.6918726 444.77301534 -23 443 C-22.38962891 442.34870117 -21.77925781 441.69740234 -21.15039062 441.02636719 C1.8791175 416.57658868 27.7897432 403.68434318 60 395 C60.67801034 392.09926819 60.67801034 392.09926819 61 389 C59.10925801 386.68323939 59.10925801 386.68323939 55.95703125 386.71875 C51.26205529 387.05245017 47.16784689 388.11315305 42.6875 389.5 C41.81665771 389.76699707 40.94581543 390.03399414 40.04858398 390.30908203 C13.53495449 398.71414499 -7.85765975 413.88280354 -27.5 433.375 C-28.01691406 433.88716064 -28.53382813 434.39932129 -29.06640625 434.92700195 C-31.32372647 437.19448011 -33.21817315 439.32725972 -35 442 C-35.66 442 -36.32 442 -37 442 C-37.48225635 438.54209039 -37.96022208 435.08359999 -38.4375 431.625 C-38.57220703 430.65949219 -38.70691406 429.69398438 -38.84570312 428.69921875 C-39.6018595 423.20325293 -40.27163699 417.71231549 -40.78833008 412.18847656 C-40.96288317 410.3837546 -41.18244806 408.58344569 -41.4140625 406.78515625 C-41.89059168 400.63439992 -41.01238762 397.22739053 -37.125 392.375 C-35.44640885 390.55543852 -33.73746228 388.76343331 -32 387 C-31.23042969 386.15566406 -30.46085937 385.31132812 -29.66796875 384.44140625 C-16.48128785 370.4237239 -0.53647085 361.70517147 17.9453125 356.84375 C21.49567924 355.86308604 24.68098469 354.58048348 28 353 C28.16687448 350.58354218 28.16687448 350.58354218 28 348 C27.34 347.34 26.68 346.68 26 346 C2.48085666 346 -19.02781219 361.14035173 -35.37109375 376.58203125 C-37.50976867 378.54910373 -39.63639208 380.3180946 -42 382 C-43.12218049 377.49392761 -43.1610108 373.06336678 -43.16796875 368.44921875 C-43.17202225 367.60996857 -43.17607574 366.77071838 -43.18025208 365.90603638 C-43.18973285 363.16648584 -43.18964259 360.42706479 -43.1875 357.6875 C-43.18858765 356.28846939 -43.18858765 356.28846939 -43.18969727 354.86117554 C-43.18829256 338.47051101 -42.42305934 322.24066857 -41.1875 305.90087891 C-40.9731718 302.58493139 -40.92128959 299.32059543 -41 296 C-46.79516004 312.41651445 -51.97419814 328.90375235 -56.375 345.75 C-56.68156525 346.91828339 -56.68156525 346.91828339 -56.99432373 348.11016846 C-58.81387246 355.07234327 -60.59316781 362.03624649 -62.10644531 369.07226562 C-62.28462799 369.89986389 -62.46281067 370.72746216 -62.64639282 371.58013916 C-62.98421987 373.16951755 -63.31493888 374.76042822 -63.63754272 376.35296631 C-64.78291997 381.78291997 -64.78291997 381.78291997 -67 384 C-67.73863281 383.35933594 -68.47726563 382.71867187 -69.23828125 382.05859375 C-78.98095377 373.70703754 -89.40126759 365.4655539 -102 362 C-105.32456649 362.26311221 -105.32456649 362.26311221 -108 364 C-108.50059916 366.41482413 -108.50059916 366.41482413 -108 369 C-104.33074747 371.55074433 -100.27704596 373.33491592 -96.25 375.25 C-90.2192456 378.19803627 -85.07735256 381.62053056 -80 386 C-79.35289062 386.52722656 -78.70578125 387.05445313 -78.0390625 387.59765625 C-76.3134141 389.02113415 -74.65452689 390.49510733 -73 392 C-72.175 392.70125 -71.35 393.4025 -70.5 394.125 C-66.21003922 402.34742482 -71.14436103 417.17272632 -72.5625 426.25 C-72.79920557 427.7850981 -73.03553615 429.32025406 -73.27148438 430.85546875 C-73.84334563 434.57099225 -74.42023974 438.2857012 -75 442 C-78.76679687 442 -79.08262465 441.21452245 -81.6875 438.625 C-93.26998923 428.01708916 -109.83987486 418.25356029 -125 414 C-128.32696125 414.26018168 -128.32696125 414.26018168 -131 416 C-131.50059916 418.41482413 -131.50059916 418.41482413 -131 421 C-127.5781376 423.46614693 -123.79245562 424.98727789 -119.92236328 426.59887695 C-104.79446719 432.94423358 -92.67109219 441.53044944 -81 453 C-80.2904718 453.59504333 -79.5809436 454.19008667 -78.84991455 454.80316162 C-76.45669485 457.64519391 -76.61657816 458.93779729 -76.91308594 462.59472656 C-76.99347107 463.71558655 -77.0738562 464.83644653 -77.15667725 465.99127197 C-77.2648175 467.19555847 -77.37295776 468.39984497 -77.484375 469.640625 C-77.62604095 471.49660309 -77.62604095 471.49660309 -77.77056885 473.39007568 C-78.0249841 476.67291832 -78.29779252 479.95354695 -78.57958984 483.23413086 C-78.86281586 486.58455673 -79.12178528 489.93684718 -79.3828125 493.2890625 C-79.89953588 499.86132287 -80.44055477 506.43124589 -81 513 C-83.68607367 511.68406437 -86.07454817 510.31648557 -88.4765625 508.53125 C-117.42385284 486.93487476 -117.42385284 486.93487476 -151.0625 478.3125 C-151.701875 478.539375 -152.34125 478.76625 -153 479 C-153.33 480.98 -153.66 482.96 -154 485 C-150.42390075 487.38406616 -146.9038456 488.82233401 -142.87182617 490.19262695 C-125.53651054 496.09359338 -109.35087262 504.60609639 -95 516 C-94.39591309 516.4753418 -93.79182617 516.95068359 -93.16943359 517.44042969 C-91.32785688 518.90199851 -89.50408694 520.38251778 -87.6875 521.875 C-87.12933594 522.32746094 -86.57117188 522.77992188 -85.99609375 523.24609375 C-83.06793875 525.72319457 -81.61876176 527.2305165 -81 531 C-80.91530292 532.64897611 -80.88221908 534.30100408 -80.88647461 535.95214844 C-80.88655014 536.93286316 -80.88662567 537.91357788 -80.88670349 538.92401123 C-80.89186478 539.97518127 -80.89702606 541.02635132 -80.90234375 542.109375 C-80.90446617 543.73229462 -80.90446617 543.73229462 -80.90663147 545.38800049 C-80.91222682 548.8420285 -80.9247785 552.29599159 -80.9375 555.75 C-80.9425156 558.09244698 -80.9470784 560.43489498 -80.95117188 562.77734375 C-80.96219472 568.5182513 -80.97892826 574.25912101 -81 580 C-84.46811954 577.9500199 -87.77616131 575.77150596 -91.05932617 573.43505859 C-110.50518999 559.68180078 -131.28155874 549.18544708 -153.8125 541.5 C-154.52301514 541.25652832 -155.23353027 541.01305664 -155.96557617 540.76220703 C-160.63957642 539.24105968 -165.08236866 538.29771606 -170 538 C-172.2491908 539.82703227 -172.2491908 539.82703227 -172.25 542.5 C-172.2491908 545.17296773 -172.2491908 545.17296773 -170 547 C-167.63009898 547.7236339 -165.27044023 548.37328439 -162.875 549 C-132.49246816 557.51674055 -103.13918756 573.45661848 -80 595 C-78.5715902 597.8568196 -78.801582 600.4068501 -78.703125 603.59765625 C-77.97195945 620.12788533 -76.60518311 631.7962215 -64.69140625 644.15185547 C-61.91438838 647.18621247 -59.7079747 650.53932592 -57.5 654 C-57.06196045 654.68473389 -56.6239209 655.36946777 -56.17260742 656.07495117 C-45.76498369 672.74260134 -37.25174847 690.37955335 -31 709 C-30.58911133 710.21018799 -30.58911133 710.21018799 -30.16992188 711.44482422 C-15.32662673 755.87635048 -13.44405072 804.59743785 -25 850 C-28.006818 848.66000502 -29.99762609 847.20154709 -32.25 844.8125 C-34.60073037 842.38753604 -36.98158179 840.11497704 -39.5625 837.9375 C-43.57741719 834.48607996 -47.27865891 830.76059574 -51 827 C-55.16380613 822.79254811 -59.3463565 818.73126265 -63.87109375 814.91015625 C-67.48638528 811.66634421 -70.86309603 808.17694126 -74.25805664 804.70483398 C-77.67678864 801.23162855 -81.20808781 798.06313627 -85 795 C-78.83551421 770.57689439 -63.81709551 745.91749382 -42.1875 732.21875 C-40.45261753 731.21330675 -38.70271442 730.23296152 -36.93359375 729.2890625 C-34.68395077 728.07508667 -34.68395077 728.07508667 -34 725 C-42.23472556 729.06161512 -49.13156104 733.91868199 -56 740 C-56.62519531 740.54140625 -57.25039063 741.0828125 -57.89453125 741.640625 C-71.77980072 754.51783041 -80.89678134 773.36507172 -87 791 C-90.48654476 789.5158627 -92.64191072 787.53785948 -95.25 784.8125 C-98.0587808 781.93498883 -100.87666256 779.17010999 -103.9375 776.5625 C-105.29465849 775.37842043 -106.64853625 774.19057521 -108 773 C-108.91007813 772.20464844 -109.82015625 771.40929687 -110.7578125 770.58984375 C-111.68335938 769.73519531 -112.60890625 768.88054688 -113.5625 768 C-114.43003906 767.21625 -115.29757813 766.4325 -116.19140625 765.625 C-118 763 -118 763 -117.9140625 759.57421875 C-111.94912818 736.24979609 -98.34705176 714.36440097 -77.52050781 701.91674805 C-75.98448956 700.99129071 -74.48784588 700.00106842 -73 699 C-73 698.34 -73 697.68 -73 697 C-92.58249891 704.13039481 -105.35027199 722.79333434 -113.99365234 740.78320312 C-116.68736581 746.71695331 -118.88597288 752.84030529 -121 759 C-124.44781803 757.06608582 -127.17006429 755.06315359 -129.92578125 752.234375 C-130.64056641 751.50863281 -131.35535156 750.78289063 -132.09179688 750.03515625 C-132.82462891 749.28105469 -133.55746094 748.52695312 -134.3125 747.75 C-139.6836233 742.24927855 -145.13127606 736.97110772 -151 732 C-146.53405407 711.52200401 -136.75097107 690.26324178 -119.046875 677.9453125 C-116.38988112 676.2489241 -113.71696563 674.59821508 -111 673 C-113.85683662 671.66442515 -113.85683662 671.66442515 -115.91015625 672.8984375 C-135.56692137 686.38347782 -147.18231209 704.95087458 -153 728 C-156.25207092 726.58261511 -158.31361067 724.87473588 -160.75 722.3125 C-163.44250961 719.53991575 -166.17566289 716.93483142 -169.125 714.4375 C-169.77082031 713.85613281 -170.41664063 713.27476562 -171.08203125 712.67578125 C-172.95835559 710.97340772 -172.95835559 710.97340772 -175.01171875 709.60546875 C-177.23695246 707.77604667 -178.13559907 706.77422917 -179 704 C-176.49117289 686.18183376 -166.49357479 669.67510475 -153 658 C-150.71303284 656.4623611 -148.47154199 655.23577099 -146 654 C-146 653.34 -146 652.68 -146 652 C-159.2277693 656.78056224 -167.91769558 668.77939755 -174.04345703 680.90234375 C-176.98567761 687.3545028 -178.97014648 694.21844393 -181 701 C-184.81734812 699.40266994 -187.58360973 696.85557255 -190.5625 694.0625 C-191.08553711 693.57813477 -191.60857422 693.09376953 -192.14746094 692.59472656 C-196.69601604 688.35287716 -201.0691925 683.95032341 -205.44140625 679.52734375 C-208.82389725 676.18616562 -212.35977878 673.05611695 -216 670 C-214.72680443 672.69120611 -213.33905096 675.03538339 -211.53125 677.3984375 C-211.04688477 678.0363623 -210.56251953 678.67428711 -210.06347656 679.33154297 C-209.28955566 680.3430542 -209.28955566 680.3430542 -208.5 681.375 C-204.36549033 686.8385492 -200.25871104 692.31826914 -196.25 697.875 C-195.82009766 698.4632959 -195.39019531 699.0515918 -194.94726562 699.65771484 C-192 703.76561854 -192 703.76561854 -192 706 C-192.63276855 706.0093457 -193.26553711 706.01869141 -193.91748047 706.02832031 C-212.38919268 706.36908983 -229.17619139 707.95096215 -246 716 C-246 716.99 -246 717.98 -246 719 C-245.3915625 718.68546875 -244.783125 718.3709375 -244.15625 718.046875 C-228.54466633 710.42474885 -212.22789466 708.37286037 -195 709 C-193.22496094 709.02126953 -193.22496094 709.02126953 -191.4140625 709.04296875 C-186.47587646 710.42724287 -184.80127305 713.31366173 -182 717.4375 C-181.22897949 718.521521 -181.22897949 718.521521 -180.44238281 719.62744141 C-179.41812107 721.07230151 -178.4026008 722.5234034 -177.39648438 723.98095703 C-176.17841334 725.74204924 -174.92781299 727.48055353 -173.671875 729.21484375 C-169 735.68140244 -169 735.68140244 -169 738 C-170.81757813 737.94779297 -170.81757813 737.94779297 -172.671875 737.89453125 C-194.34209694 737.46435857 -215.84986464 740.18201488 -235 751 C-230.94021296 752.35326235 -229.69058849 751.14061838 -225.875 749.3125 C-211.482255 742.73202894 -196.07651765 740.80952638 -180.375 740.625 C-179.16070312 740.58761719 -177.94640625 740.55023437 -176.6953125 740.51171875 C-167.83458962 740.4238922 -167.83458962 740.4238922 -164.0234375 743.0546875 C-163.02183594 744.51261719 -163.02183594 744.51261719 -162 746 C-161.07088228 747.17959026 -160.13835054 748.35649636 -159.203125 749.53125 C-158.21387577 750.85052579 -157.22967996 752.17360269 -156.25 753.5 C-155.73211914 754.19617432 -155.21423828 754.89234863 -154.68066406 755.60961914 C-141 774.09535337 -141 774.09535337 -141 776 C-142.27508423 776.02187378 -142.27508423 776.02187378 -143.57592773 776.04418945 C-166.4715649 776.31285679 -166.4715649 776.31285679 -189 780 C-190.04534912 780.25523437 -190.04534912 780.25523437 -191.11181641 780.515625 C-201.46937465 783.10328176 -210.64347441 786.85465233 -220 792 C-217.17487811 793.31537925 -217.17487811 793.31537925 -215.22265625 792.21484375 C-214.15337891 791.58255859 -214.15337891 791.58255859 -213.0625 790.9375 C-192.06582242 780.01314166 -167.25234312 777.96401684 -144 779 C-142.75347656 779.01546875 -141.50695312 779.0309375 -140.22265625 779.046875 C-135.44108355 780.46106135 -133.90501266 783.4110145 -131.3125 787.5 C-130.28337699 789.04351906 -129.25340236 790.5864706 -128.22265625 792.12890625 C-127.69816895 792.92828613 -127.17368164 793.72766602 -126.63330078 794.55126953 C-123.43978158 799.33916155 -120.02864341 803.97690241 -116.6574707 808.640625 C-113 813.77839818 -113 813.77839818 -113 816 C-113.66306152 815.98952637 -114.32612305 815.97905273 -115.00927734 815.96826172 C-144.93702469 815.55985059 -174.20145824 818.48412321 -201 833 C-201 833.66 -201 834.32 -201 835 C-198.26436005 833.91499994 -195.54162472 832.80750496 -192.828125 831.66796875 C-171.04457763 822.65490712 -150.10489339 818.77874607 -126.5625 818.5625 C-125.46143921 818.54417618 -125.46143921 818.54417618 -124.33813477 818.52548218 C-122.22610172 818.49582643 -120.1160921 818.49519411 -118.00390625 818.50390625 C-116.77486572 818.50205322 -115.5458252 818.5002002 -114.27954102 818.49829102 C-109.70505776 819.19810216 -107.46626292 821.26701035 -104.53710938 824.72900391 C-104.14330078 825.30569824 -103.74949219 825.88239258 -103.34375 826.4765625 C-102.88556885 827.137771 -102.4273877 827.79897949 -101.95532227 828.48022461 C-101.47506592 829.18800049 -100.99480957 829.89577637 -100.5 830.625 C-99.43718497 832.16083977 -98.37334891 833.69597338 -97.30859375 835.23046875 C-96.76315918 836.0198584 -96.21772461 836.80924805 -95.65576172 837.62255859 C-93.00519153 841.42840532 -90.28534648 845.18318489 -87.5625 848.9375 C-87.02737793 849.67693848 -86.49225586 850.41637695 -85.94091797 851.17822266 C-84.2947449 853.45272861 -82.64742884 855.72640348 -81 858 C-61 885.61527581 -61 885.61527581 -61 887 C-122.33518713 888.49113097 -181.19641018 871.14528656 -229 832 C-229.54785156 831.55366211 -230.09570312 831.10732422 -230.66015625 830.64746094 C-244.0302303 819.69100503 -256.42124518 807.69711912 -267 794 C-267.7734375 793.04351563 -268.546875 792.08703125 -269.34375 791.1015625 C-303.91755159 747.66548898 -321.48988427 693.32224834 -321.375 638.125 C-321.37445618 637.13754791 -321.37391235 636.15009583 -321.37335205 635.13272095 C-321.33287777 619.10021119 -320.41417869 603.71606064 -317 588 C-316.67056396 586.45844238 -316.67056396 586.45844238 -316.33447266 584.88574219 C-313.93830599 573.968176 -310.94653649 563.23682695 -307.4375 552.625 C-307.03470825 551.35765015 -307.03470825 551.35765015 -306.6237793 550.06469727 C-304.6758115 544.47748925 -304.6758115 544.47748925 -301.91015625 542.5234375 C-294.29059734 541.15293966 -286.65963913 540.84901761 -278.93359375 540.8671875 C-278.01465836 540.86623077 -277.09572296 540.86527405 -276.14894104 540.86428833 C-274.22209606 540.86361304 -272.29524871 540.86542148 -270.3684082 540.86962891 C-267.44151647 540.87499264 -264.51477772 540.86965844 -261.58789062 540.86328125 C-259.70312467 540.86394203 -257.8183588 540.86522318 -255.93359375 540.8671875 C-255.07084335 540.86516327 -254.20809296 540.86313904 -253.31919861 540.86105347 C-247.80691156 540.88204014 -242.46956037 541.30670938 -237 542 C-237.19110352 541.12190674 -237.38220703 540.24381348 -237.57910156 539.33911133 C-240.91028701 523.91684514 -244.1561714 508.51270362 -246.3125 492.875 C-246.45913086 491.82675049 -246.60576172 490.77850098 -246.75683594 489.69848633 C-247.2221892 486.13701526 -247.62694826 482.57205388 -248 479 C-248.08613556 478.18728638 -248.17227112 477.37457275 -248.26101685 476.53723145 C-250.02709137 459.35433077 -250.3624007 442.26390901 -250.3125 425 C-250.31027658 423.64169319 -250.30810011 422.2833863 -250.30596924 420.92507935 C-250.2629602 401.12881734 -249.88061449 381.61744678 -247 362 C-246.85081116 360.96175079 -246.85081116 360.96175079 -246.6986084 359.90252686 C-235.73935113 283.79375816 -209.15665386 210.25740267 -165 147 C-164.39212646 146.12625732 -164.39212646 146.12625732 -163.77197266 145.23486328 C-153.09388777 129.94417877 -141.54229849 115.38279856 -129.375 101.25 C-128.5854895 100.32888428 -128.5854895 100.32888428 -127.7800293 99.38916016 C-124.50947578 95.61430937 -121.09536977 92.04775998 -117.54003906 88.54052734 C-115.82819936 86.82814489 -114.24185205 85.04350527 -112.6875 83.1875 C-106.69275718 76.25187826 -100.14796703 69.85779373 -93.18359375 63.90234375 C-90.99235766 61.993342 -88.85714099 60.03051145 -86.72753906 58.05322266 C-80.67878452 52.44364528 -74.45852212 47.13746078 -68 42 C-66.82276142 41.03404334 -65.64568871 40.06788451 -64.46875 39.1015625 C-54.42973963 30.97674923 -43.86328084 23.71882163 -33.125 16.5625 C-32.41784851 16.09018951 -31.71069702 15.61787903 -30.9821167 15.1312561 C-26.34928647 12.04335168 -21.68967308 9.00082972 -17 6 C-16.41037476 5.61946472 -15.82074951 5.23892944 -15.21325684 4.84686279 C-13.58797348 3.80645229 -11.94671405 2.79112321 -10.3046875 1.77734375 C-9.39444824 1.21136475 -8.48420898 0.64538574 -7.54638672 0.06225586 C-4.43249741 -1.23674054 -3.16461113 -1.09107401 0 0 Z M-40 291 C-39 293 -39 293 -39 293 Z " fill="#EB0000" transform="translate(321,1)"/>
<path d="M0 0 C64.68 0 129.36 0 196 0 C198.67341771 6.01518984 201.21969463 11.98035996 203.5546875 18.12109375 C203.88835831 18.99285248 204.22202911 19.86461121 204.56581116 20.76278687 C205.67135523 23.65341672 206.77324915 26.54542246 207.875 29.4375 C208.66726684 31.5120134 209.45966934 33.586475 210.25219727 35.66088867 C218.84820251 58.17511685 227.38462134 80.7120623 235.92422485 103.24772644 C240.5678831 115.50099273 245.21992896 127.75106553 249.875 140 C250.26630096 141.02968903 250.65760193 142.05937805 251.0607605 143.12026978 C256.69093865 157.93486122 262.32986391 172.74610611 267.97390747 187.55541992 C273.42818785 201.86721141 278.87275253 216.18267864 284.3125 230.5 C284.70869537 231.542771 285.10489075 232.58554199 285.51309204 233.65991211 C288.74858407 242.17582496 291.98361383 250.6919134 295.21862793 259.20800781 C296.43479504 262.40951258 297.6509835 265.61100924 298.8671875 268.8125 C299.26728027 269.86569427 299.66737305 270.91888855 300.07958984 272.0039978 C303.23162818 280.30094276 306.3852057 288.59730209 309.53930664 296.89346313 C311.87008277 303.0248281 314.19815208 309.15721315 316.52427673 315.29034424 C318.0160603 319.22259596 319.50951035 323.15421337 321.00332642 327.08569336 C321.70278326 328.92769514 322.40150786 330.76997516 323.09945679 332.61254883 C324.05527977 335.13565857 325.01366001 337.65778249 325.97265625 340.1796875 C326.25192963 340.91883392 326.531203 341.65798035 326.81893921 342.41952515 C328.07054383 345.70352479 329.39709582 348.87403542 331 352 C331.45101074 350.82236084 331.90202148 349.64472168 332.36669922 348.43139648 C332.66970947 347.64020416 332.97271973 346.84901184 333.28491211 346.03384399 C333.97860001 344.2225455 334.67228479 342.41124582 335.3659668 340.59994507 C337.35735 335.40017999 339.34879302 330.20043783 341.34033203 325.00073242 C345.39470872 314.41499216 349.44845706 303.82901269 353.5 293.2421875 C360.83698075 274.07235002 368.1865562 254.90747976 375.56066895 235.75189209 C382.94317429 216.57429568 390.2993291 197.38688209 397.625 178.1875 C398.2836908 176.46120865 398.2836908 176.46120865 398.95568848 174.70004272 C399.83733543 172.3893805 400.71897811 170.07871665 401.60061646 167.76805115 C402.03276459 166.63545364 402.46491272 165.50285614 402.91015625 164.3359375 C403.33948456 163.21071182 403.76881287 162.08548615 404.21115112 160.92616272 C416.19131448 129.53145648 428.23619885 98.16162409 440.3046875 66.80078125 C448.87255033 44.5349155 457.43568111 22.26722913 466 0 C530.35 0 594.7 0 661 0 C661 178.2 661 356.4 661 540 C619.09 540 577.18 540 534 540 C533.67 405.69 533.34 271.38 533 133 C523.1 159.235 523.1 159.235 513 186 C508.12270164 198.75601108 503.24374438 211.51098565 498.35076904 224.26092529 C493.78208431 236.16849901 489.23526695 248.08442552 484.6875 260 C483.8023284 262.31909215 482.91715587 264.63818395 482.03198242 266.95727539 C480.69579933 270.4580191 479.35963585 273.95877029 478.02354431 277.45954895 C474.90663681 285.62599481 471.78774981 293.79168278 468.66796875 301.95703125 C460.19666469 324.13065502 451.73730603 346.30866366 443.3125 368.5 C436.54266062 386.33180297 429.74030187 404.15085674 422.91162109 421.96020508 C418.41871421 433.67879069 413.93687532 445.40152891 409.46484375 457.12809753 C401.79354095 477.24371192 394.11797201 497.35772385 386.37771606 517.44692993 C385.63045806 519.38715574 384.88408863 521.32772402 384.13864136 523.26864624 C383.12110318 525.91710098 382.10015348 528.56421292 381.078125 531.2109375 C380.77816116 531.99345383 380.47819733 532.77597015 380.16914368 533.5821991 C378.11450954 538.88549046 378.11450954 538.88549046 377 540 C374.13908182 540.09522418 371.30236379 540.12553326 368.44116211 540.11352539 C367.09495033 540.11374443 367.09495033 540.11374443 365.72154236 540.1139679 C362.74011866 540.11326842 359.7587566 540.10547441 356.77734375 540.09765625 C354.71611058 540.09579219 352.65487696 540.09436823 350.59364319 540.09336853 C345.1569599 540.08954237 339.72030314 540.07971126 334.28363037 540.06866455 C328.74052286 540.05845253 323.19741108 540.05387136 317.65429688 540.04882812 C306.76951957 540.03808908 295.88476198 540.02101149 285 540 C276.12070197 517.08765444 267.27773705 494.16284965 258.5625 471.1875 C252.4419335 455.05273467 246.30255353 438.92553905 240.125 422.8125 C238.6366291 418.92972186 237.14834868 415.04690905 235.66015625 411.1640625 C235.28508942 410.18548279 234.91002258 409.20690308 234.52359009 408.19866943 C229.86117721 396.03161091 225.21068758 383.85999899 220.5625 371.6875 C220.12201324 370.53400055 219.68152649 369.3805011 219.22769165 368.19204712 C212.5093265 350.59616785 205.81425066 332.99152356 199.12911987 315.38299561 C192.74995135 298.58247848 186.33538403 281.79576614 179.90283203 265.015625 C174.15262437 250.01489953 168.41667626 235.0087701 162.6875 220 C162.25555328 218.86851532 161.82360657 217.73703064 161.37857056 216.57125854 C157.02113946 205.15688788 152.66472014 193.74213116 148.30888271 182.32715225 C146.35012467 177.1940539 144.39109516 172.06105919 142.43190098 166.92812729 C140.81249067 162.68532063 139.19367228 158.44228839 137.57495117 154.19921875 C136.73358499 151.99478259 135.89219624 149.79035503 135.05078125 147.5859375 C134.66846344 146.58339935 134.28614563 145.58086121 133.89224243 144.54794312 C133.53890839 143.62252716 133.18557434 142.69711121 132.8215332 141.74365234 C132.51625198 140.94357758 132.21097076 140.14350281 131.8964386 139.31918335 C130.95045785 136.8718291 129.97446165 134.43615412 129 132 C128.67 266.64 128.34 401.28 128 540 C85.76 540 43.52 540 0 540 C0 361.8 0 183.6 0 0 Z " fill="#000000" transform="translate(931,187)"/>
<path d="M0 0 C48.18 0 96.36 0 146 0 C161.98503583 22.83576547 161.98503583 22.83576547 168.6875 32.75 C170.1312042 34.87911392 171.57521438 37.00802039 173.01953125 39.13671875 C173.70096191 40.14138184 174.38239258 41.14604492 175.08447266 42.18115234 C178.9416246 47.8572518 182.83518732 53.50823609 186.73046875 59.15820312 C188.94759045 62.37473507 191.16143251 65.59352145 193.375 68.8125 C193.82407715 69.46549072 194.2731543 70.11848145 194.73583984 70.79125977 C198.88812976 76.8318215 203.02612448 82.88212951 207.16357422 88.93286133 C210.60197218 93.96013108 214.04732974 98.98252305 217.5 104 C222.06666905 110.63635824 226.6170039 117.2837874 231.1640625 123.93359375 C234.6023128 128.960609 238.04749607 133.98276475 241.5 139 C246.06666905 145.63635824 250.6170039 152.2837874 255.1640625 158.93359375 C258.6023128 163.960609 262.04749607 168.98276475 265.5 174 C269.50958738 179.82679803 273.50760903 185.66140652 277.5 191.5 C283.31924338 200.00972322 289.15574869 208.50743862 295 217 C301.40119079 226.3018768 307.79003837 235.61200944 314.16357422 244.93286133 C317.60197218 249.96013108 321.04732974 254.98252305 324.5 260 C329.06666905 266.63635824 333.6170039 273.2837874 338.1640625 279.93359375 C341.6023128 284.960609 345.04749607 289.98276475 348.5 295 C353.06010401 301.62681781 357.6042229 308.26446916 362.14428711 314.9050293 C366.2175916 320.86122472 370.30233714 326.80945679 374.3984375 332.75 C374.81480469 333.35457031 375.23117187 333.95914062 375.66015625 334.58203125 C376.01730713 335.09999268 376.37445801 335.6179541 376.74243164 336.15161133 C378.51372016 338.7550719 380.25331347 341.3799702 382 344 C382.33 230.48 382.66 116.96 383 0 C424.91 0 466.82 0 510 0 C510 178.2 510 356.4 510 540 C461.16 540 412.32 540 362 540 C352.43 525.48 342.86 510.96 333 496 C326.35934919 486.08340984 326.35934919 486.08340984 319.67895508 476.19433594 C316.70837173 471.81720089 313.74736513 467.43358605 310.78515625 463.05078125 C309.90979721 461.75619492 309.90979721 461.75619492 309.01675415 460.43545532 C303.19915115 451.82634245 297.43968158 443.17903722 291.68780518 434.52593994 C286.22701104 426.3131301 280.73943964 418.1192747 275.21484375 409.94921875 C274.62424667 409.07574295 274.0336496 408.20226715 273.42515564 407.30232239 C272.20978666 405.50502585 270.99438817 403.70774926 269.77896118 401.91049194 C269.17127899 401.0119046 268.5635968 400.11331726 267.9375 399.1875 C267.33328217 398.29414948 266.72906433 397.40079895 266.10653687 396.4803772 C255.17310784 380.3064256 244.40202928 364.02892524 233.71655273 347.69018555 C228.9246626 340.37510319 224.13562457 333.07956858 219 326 C213.23005722 318.04601016 207.88543753 309.81751769 202.50808716 301.59524536 C190.51358217 283.26179015 178.35169457 265.04634741 166.07104492 246.90356445 C159.32723528 236.94029677 152.61776377 226.95547488 145.95288086 216.93920898 C139.97397032 207.95588758 133.98581489 198.97872233 128 190 C127.67 305.5 127.34 421 127 540 C85.09 540 43.18 540 0 540 C0 361.8 0 183.6 0 0 Z " fill="#000000" transform="translate(1685,187)"/>
<path d="M0 0 C42.57 0 85.14 0 129 0 C129 178.2 129 356.4 129 540 C86.43 540 43.86 540 0 540 C0 361.8 0 183.6 0 0 Z " fill="#000000" transform="translate(707,187)"/>
<path d="M0 0 C0.91656372 -0.00095673 1.83312744 -0.00191345 2.77746582 -0.00289917 C4.70011464 -0.00357452 6.62276582 -0.00176569 8.54541016 0.00244141 C11.46131592 0.00779884 14.37706769 0.00247428 17.29296875 -0.00390625 C19.1744795 -0.00324535 21.05599016 -0.00196395 22.9375 0 C23.79508911 -0.00202423 24.65267822 -0.00404846 25.53625488 -0.00613403 C41.89207992 0.05614242 41.89207992 0.05614242 43.96875 2.1328125 C45.49743977 2.42993229 47.03656904 2.67367426 48.578125 2.89453125 C92.00122831 9.41933954 134.18144677 26.73086592 167.96875 55.1328125 C169.11437534 56.07447186 170.2602124 57.01587368 171.40625 57.95703125 C182.03536956 66.78618962 192.36393518 76.29645857 200.96875 87.1328125 C201.78085938 87.94234375 202.59296875 88.751875 203.4296875 89.5859375 C224.2991174 110.51958103 238.69252735 140.50415635 247.96875 168.1328125 C248.24267578 168.93960449 248.51660156 169.74639648 248.79882812 170.57763672 C263.64212327 215.00916298 265.52469928 263.73025035 253.96875 309.1328125 C250.961932 307.79281752 248.97112391 306.33435959 246.71875 303.9453125 C244.36801963 301.52034854 241.98716821 299.24778954 239.40625 297.0703125 C235.39133281 293.61889246 231.69009109 289.89340824 227.96875 286.1328125 C223.80494387 281.92536061 219.6223935 277.86407515 215.09765625 274.04296875 C211.48236472 270.79915671 208.10565397 267.30975376 204.71069336 263.83764648 C201.29196136 260.36444105 197.76066219 257.19594877 193.96875 254.1328125 C200.13323579 229.70970689 215.15165449 205.05030632 236.78125 191.3515625 C238.51613247 190.34611925 240.26603558 189.36577402 242.03515625 188.421875 C244.28479923 187.20789917 244.28479923 187.20789917 244.96875 184.1328125 C236.73402444 188.19442762 229.83718896 193.05149449 222.96875 199.1328125 C222.03095703 199.94492187 222.03095703 199.94492187 221.07421875 200.7734375 C207.18894928 213.65064291 198.07196866 232.49788422 191.96875 250.1328125 C188.48220524 248.6486752 186.32683928 246.67067198 183.71875 243.9453125 C180.9099692 241.06780133 178.09208744 238.30292249 175.03125 235.6953125 C173.67409151 234.51123293 172.32021375 233.32338771 170.96875 232.1328125 C170.05867187 231.33746094 169.14859375 230.54210937 168.2109375 229.72265625 C167.28539062 228.86800781 166.35984375 228.01335937 165.40625 227.1328125 C164.53871094 226.3490625 163.67117187 225.5653125 162.77734375 224.7578125 C160.96875 222.1328125 160.96875 222.1328125 161.0546875 218.70703125 C167.01962182 195.38260859 180.62169824 173.49721347 201.44824219 161.04956055 C202.98426044 160.12410321 204.48090412 159.13388092 205.96875 158.1328125 C205.96875 157.4728125 205.96875 156.8128125 205.96875 156.1328125 C186.38625109 163.26320731 173.61847801 181.92614684 164.97509766 199.91601562 C162.28138419 205.84976581 160.08277712 211.97311779 157.96875 218.1328125 C154.52093197 216.19889832 151.79868571 214.19596609 149.04296875 211.3671875 C147.97079102 210.27857422 147.97079102 210.27857422 146.87695312 209.16796875 C146.14412109 208.41386719 145.41128906 207.65976562 144.65625 206.8828125 C139.2851267 201.38209105 133.83747394 196.10392022 127.96875 191.1328125 C132.43469593 170.65481651 142.21777893 149.39605428 159.921875 137.078125 C162.57886888 135.3817366 165.25178437 133.73102758 167.96875 132.1328125 C165.11191338 130.79723765 165.11191338 130.79723765 163.05859375 132.03125 C143.40182863 145.51629032 131.78643791 164.08368708 125.96875 187.1328125 C122.71667908 185.71542761 120.65513933 184.00754838 118.21875 181.4453125 C115.52624039 178.67272825 112.79308711 176.06764392 109.84375 173.5703125 C109.19792969 172.98894531 108.55210937 172.40757812 107.88671875 171.80859375 C106.01039441 170.10622022 106.01039441 170.10622022 103.95703125 168.73828125 C101.73179754 166.90885917 100.83315093 165.90704167 99.96875 163.1328125 C102.47757711 145.31464626 112.47517521 128.80791725 125.96875 117.1328125 C128.25571716 115.5951736 130.49720801 114.36858349 132.96875 113.1328125 C132.96875 112.4728125 132.96875 111.8128125 132.96875 111.1328125 C119.7409807 115.91337474 111.05105442 127.91221005 104.92529297 140.03515625 C101.98307239 146.4873153 99.99860352 153.35125643 97.96875 160.1328125 C94.15140188 158.53548244 91.38514027 155.98838505 88.40625 153.1953125 C87.88321289 152.71094727 87.36017578 152.22658203 86.82128906 151.72753906 C82.27273396 147.48568966 77.8995575 143.08313591 73.52734375 138.66015625 C70.14485275 135.31897812 66.60897122 132.18892945 62.96875 129.1328125 C64.24194557 131.82401861 65.62969904 134.16819589 67.4375 136.53125 C67.92186523 137.1691748 68.40623047 137.80709961 68.90527344 138.46435547 C69.4212207 139.13869629 69.93716797 139.81303711 70.46875 140.5078125 C74.60325967 145.9713617 78.71003896 151.45108164 82.71875 157.0078125 C83.14865234 157.5961084 83.57855469 158.1844043 84.02148438 158.79052734 C86.96875 162.89843104 86.96875 162.89843104 86.96875 165.1328125 C86.33598145 165.1421582 85.70321289 165.15150391 85.05126953 165.16113281 C66.57955732 165.50190233 49.79255861 167.08377465 32.96875 175.1328125 C32.96875 176.1228125 32.96875 177.1128125 32.96875 178.1328125 C33.5771875 177.81828125 34.185625 177.50375 34.8125 177.1796875 C50.42408367 169.55756135 66.74085534 167.50567287 83.96875 168.1328125 C85.15210937 168.14699219 86.33546875 168.16117188 87.5546875 168.17578125 C92.49287354 169.56005537 94.16747695 172.44647423 96.96875 176.5703125 C97.48276367 177.29299316 97.99677734 178.01567383 98.52636719 178.76025391 C99.55062893 180.20511401 100.5661492 181.6562159 101.57226562 183.11376953 C102.79033666 184.87486174 104.04093701 186.61336603 105.296875 188.34765625 C109.96875 194.81421494 109.96875 194.81421494 109.96875 197.1328125 C108.75703125 197.09800781 107.5453125 197.06320312 106.296875 197.02734375 C84.62665306 196.59717107 63.11888536 199.31482738 43.96875 210.1328125 C48.02853704 211.48607485 49.27816151 210.27343088 53.09375 208.4453125 C67.486495 201.86484144 82.89223235 199.94233888 98.59375 199.7578125 C99.80804688 199.72042969 101.02234375 199.68304687 102.2734375 199.64453125 C111.13416038 199.5567047 111.13416038 199.5567047 114.9453125 202.1875 C115.61304688 203.15945313 116.28078125 204.13140625 116.96875 205.1328125 C117.89786772 206.31240276 118.83039946 207.48930886 119.765625 208.6640625 C120.75487423 209.98333829 121.73907004 211.30641519 122.71875 212.6328125 C123.49557129 213.67707397 123.49557129 213.67707397 124.28808594 214.74243164 C137.96875 233.22816587 137.96875 233.22816587 137.96875 235.1328125 C136.69366577 235.15468628 136.69366577 235.15468628 135.39282227 235.17700195 C112.4971851 235.44566929 112.4971851 235.44566929 89.96875 239.1328125 C89.27185059 239.30296875 88.57495117 239.473125 87.85693359 239.6484375 C77.49937535 242.23609426 68.32527559 245.98746483 58.96875 251.1328125 C61.79387189 252.44819175 61.79387189 252.44819175 63.74609375 251.34765625 C64.45894531 250.92613281 65.17179687 250.50460937 65.90625 250.0703125 C86.90292758 239.14595416 111.71640688 237.09682934 134.96875 238.1328125 C136.21527344 238.14828125 137.46179688 238.16375 138.74609375 238.1796875 C143.52766645 239.59387385 145.06373734 242.543827 147.65625 246.6328125 C148.68537301 248.17633156 149.71534764 249.7192831 150.74609375 251.26171875 C151.27058105 252.06109863 151.79506836 252.86047852 152.33544922 253.68408203 C155.52896842 258.47197405 158.94010659 263.10971491 162.3112793 267.7734375 C165.96875 272.91121068 165.96875 272.91121068 165.96875 275.1328125 C165.30568848 275.12233887 164.64262695 275.11186523 163.95947266 275.10107422 C134.03172531 274.69266309 104.76729176 277.61693571 77.96875 292.1328125 C77.96875 292.7928125 77.96875 293.4528125 77.96875 294.1328125 C80.70438995 293.04781244 83.42712528 291.94031746 86.140625 290.80078125 C107.92417237 281.78771962 128.86385661 277.91155857 152.40625 277.6953125 C153.14029053 277.68309662 153.87433105 277.67088074 154.63061523 277.65829468 C156.74264828 277.62863893 158.8526579 277.62800661 160.96484375 277.63671875 C162.80840454 277.63393921 162.80840454 277.63393921 164.68920898 277.63110352 C169.26369224 278.33091466 171.50248708 280.39982285 174.43164062 283.86181641 C174.82544922 284.43851074 175.21925781 285.01520508 175.625 285.609375 C176.08318115 286.2705835 176.5413623 286.93179199 177.01342773 287.61303711 C177.73381226 288.67470093 177.73381226 288.67470093 178.46875 289.7578125 C179.53156503 291.29365227 180.59540109 292.82878588 181.66015625 294.36328125 C182.20559082 295.1526709 182.75102539 295.94206055 183.31298828 296.75537109 C185.96355847 300.56121782 188.68340352 304.31599739 191.40625 308.0703125 C192.20893311 309.17947021 192.20893311 309.17947021 193.02783203 310.31103516 C194.6740051 312.58554111 196.32132116 314.85921598 197.96875 317.1328125 C217.96875 344.74808831 217.96875 344.74808831 217.96875 346.1328125 C156.63356287 347.62394347 97.77233982 330.27809906 49.96875 291.1328125 C49.42089844 290.68647461 48.87304688 290.24013672 48.30859375 289.78027344 C34.9385197 278.82381753 22.54750482 266.82993162 11.96875 253.1328125 C10.80859375 251.69808594 10.80859375 251.69808594 9.625 250.234375 C-24.94880159 206.79830148 -42.52113427 152.45506084 -42.40625 97.2578125 C-42.40570618 96.27036041 -42.40516235 95.28290833 -42.40460205 94.26553345 C-42.36412777 78.23302369 -41.44542869 62.84887314 -38.03125 47.1328125 C-37.81162598 46.10510742 -37.59200195 45.07740234 -37.36572266 44.01855469 C-34.96955599 33.1009885 -31.97778649 22.36963945 -28.46875 11.7578125 C-28.20022217 10.9129126 -27.93169434 10.0680127 -27.6550293 9.19750977 C-25.7070615 3.61030175 -25.7070615 3.61030175 -22.94140625 1.65625 C-15.3337041 0.28788478 -7.71408716 -0.01820813 0 0 Z " fill="#28408D" transform="translate(42.03125,541.8671875)"/>
<path d="M0 0 C39.79257642 0 39.79257642 0 45.4375 5.375 C46.07558594 5.96023438 46.71367188 6.54546875 47.37109375 7.1484375 C51.45197707 11.7871394 51.41949979 16.00901305 51.32421875 22.01171875 C50.85587667 26.32836561 49.61874068 28.55822654 47 32 C46.01 32.66 45.02 33.32 44 34 C44.62648438 34.50789062 45.25296875 35.01578125 45.8984375 35.5390625 C51.2904224 40.0805766 54.30678139 42.88008544 55.2734375 50.01953125 C55.75618664 56.58262068 53.56387624 61.56606782 50 67 C45.68735868 71.42322186 40.85699468 73.077916 34.73876953 73.22705078 C33.12008269 73.22655622 31.50137073 73.21572327 29.8828125 73.1953125 C29.12218506 73.19329834 28.36155762 73.19128418 27.57788086 73.18920898 C24.76019179 73.17881368 21.94258928 73.15089148 19.125 73.125 C12.81375 73.08375 6.5025 73.0425 0 73 C0 48.91 0 24.82 0 0 Z M10 10 C10 16.93 10 23.86 10 31 C13.155625 31.04125 16.31125 31.0825 19.5625 31.125 C20.5429126 31.14320801 21.5233252 31.16141602 22.53344727 31.18017578 C28.82332361 31.2197147 34.54487696 31.20331555 39.4375 26.8125 C41.4335879 23.21954178 41.50746274 21.05970195 41 17 C39.66204675 13.83116335 38.82745904 12.41021164 35.73168945 10.87548828 C32.80891817 9.93875954 30.54161677 9.77048473 27.48046875 9.8046875 C26.45888672 9.81113281 25.43730469 9.81757812 24.38476562 9.82421875 C23.32966797 9.84097656 22.27457031 9.85773437 21.1875 9.875 C20.11306641 9.88402344 19.03863281 9.89304687 17.93164062 9.90234375 C15.28766448 9.92584576 12.6438034 9.96171483 10 10 Z M10 40 C10 47.92 10 55.84 10 64 C15.7234375 64.0928125 15.7234375 64.0928125 21.5625 64.1875 C22.75174072 64.21481201 23.94098145 64.24212402 25.16625977 64.27026367 C31.23469525 64.3177731 35.68848815 64.03514963 41 61 C43.95657277 57.66193397 44.60417483 54.45852118 44.41015625 49.99609375 C43.65128289 46.30291006 41.74686337 44.45464386 39 42 C32.89225194 39.62119286 27.04914487 39.7661265 20.5625 39.875 C17.076875 39.91625 13.59125 39.9575 10 40 Z " fill="#000000" transform="translate(717,790)"/>
<path d="M0 0 C6.06375 -0.04125 12.1275 -0.0825 18.375 -0.125 C20.26782715 -0.14320801 22.1606543 -0.16141602 24.11083984 -0.18017578 C46.84254657 -0.31132223 46.84254657 -0.31132223 53.59375 6.3125 C57.88691922 11.46430307 58.56214656 16.80280616 58.33984375 23.28515625 C57.70132826 28.38594095 56.16213559 32.23056962 52.12890625 35.53125 C48.61399305 37.81694025 44.97227859 39.63452924 41 41 C42.01578125 41.78375 43.0315625 42.5675 44.078125 43.375 C48.63225746 47.28247317 51.59134578 51.94615324 54.75 57 C55.31332031 57.8765625 55.87664062 58.753125 56.45703125 59.65625 C59.22642504 64.00347807 61.8180878 68.32886403 64 73 C59.52913356 73.60507967 55.45435986 73.81226562 51 73 C47.68381966 70.27822934 46.03009608 66.73246364 44 63 C42.3612493 60.3630886 40.65006043 57.77684559 38.9375 55.1875 C38.53764893 54.55384521 38.13779785 53.92019043 37.72583008 53.26733398 C34.70154527 48.60060809 31.49642436 43.92451442 25.83666992 42.42797852 C23.42486783 42.06647016 21.05886066 41.84944722 18.625 41.6875 C15.77875 41.460625 12.9325 41.23375 10 41 C10 51.56 10 62.12 10 73 C6.7 73 3.4 73 0 73 C0 48.91 0 24.82 0 0 Z M10 9 C10 16.59 10 24.18 10 32 C14.35454354 32.08114056 18.7075656 32.14057664 23.0625 32.1875 C24.29162109 32.21263672 25.52074219 32.23777344 26.78710938 32.26367188 C34.22982987 32.3238556 40.02722789 32.33200242 45.9375 27.375 C47.6267716 23.59898113 47.76704566 20.05231671 47 16 C43.90873014 11.72677401 40.98428825 10.37050881 36 9 C32.91198404 8.72843879 32.91198404 8.72843879 29.7265625 8.8046875 C28.57285156 8.81113281 27.41914062 8.81757812 26.23046875 8.82421875 C24.44576172 8.84935547 24.44576172 8.84935547 22.625 8.875 C20.80548828 8.88853516 20.80548828 8.88853516 18.94921875 8.90234375 C15.96606071 8.92583318 12.98300468 8.96170179 10 9 Z " fill="#000000" transform="translate(1772,790)"/>
<path d="M0 0 C3.63 0 7.26 0 11 0 C14.10778033 3.17339985 15.98089544 5.58651747 18.20703125 9.30859375 C18.82092209 10.26387466 19.43481293 11.21915558 20.06730652 12.2033844 C22.01971803 15.25955266 23.91608543 18.34634185 25.8125 21.4375 C27.10512996 23.48339496 28.40132062 25.52704482 29.70117188 27.56835938 C32.58478685 32.10775109 35.43320234 36.66710879 38.25154114 41.24729919 C40.76741732 45.20818987 43.3971443 49.09571645 46 53 C46.33 35.51 46.66 18.02 47 0 C50.3 0 53.6 0 57 0 C57 24.09 57 48.18 57 73 C46 73 46 73 42.29199219 69.3190918 C41.17083428 67.63812216 40.09106836 65.92904943 39.046875 64.19921875 C38.16289032 62.84000053 38.16289032 62.84000053 37.26104736 61.45332336 C35.38689977 58.55330185 33.5686561 55.62256602 31.75 52.6875 C30.51395946 50.75489101 29.27440729 48.82452319 28.03125 46.89648438 C25.72904289 43.31237431 23.44664647 39.71748267 21.19042969 36.10424805 C17.82338743 30.71744421 14.41051732 25.35938436 11 20 C10.67 37.49 10.34 54.98 10 73 C6.7 73 3.4 73 0 73 C0 48.91 0 24.82 0 0 Z " fill="#000000" transform="translate(1134,790)"/>
<path d="M0 0 C5.25171426 4.28676514 8.6735269 8.76331411 10.52734375 15.3359375 C10.52734375 16.3259375 10.52734375 17.3159375 10.52734375 18.3359375 C7.22734375 18.9959375 3.92734375 19.6559375 0.52734375 20.3359375 C0.24761719 19.66046875 -0.03210937 18.985 -0.3203125 18.2890625 C-3.12776056 12.04226488 -5.08221343 8.96058366 -11.47265625 6.3359375 C-18.73443637 4.15740346 -25.70387949 5.18516177 -32.47265625 8.3359375 C-37.69697268 11.44589404 -40.80574063 15.43524531 -42.8125 21.16015625 C-44.69152011 30.19946602 -45.3057482 41.38960736 -40.66015625 49.6484375 C-36.68061143 55.30358015 -32.08897177 58.46415081 -25.47265625 60.3359375 C-16.05725317 61.60759494 -7.38028237 59.60768825 0.52734375 54.3359375 C1.11327009 51.21983196 1.11327009 51.21983196 1.21484375 47.7109375 C1.31796875 45.6071875 1.42109375 43.5034375 1.52734375 41.3359375 C-5.40265625 41.3359375 -12.33265625 41.3359375 -19.47265625 41.3359375 C-19.47265625 38.3659375 -19.47265625 35.3959375 -19.47265625 32.3359375 C-9.24265625 32.3359375 0.98734375 32.3359375 11.52734375 32.3359375 C11.75421875 36.8115625 11.98109375 41.2871875 12.21484375 45.8984375 C12.31498779 47.29650635 12.41513184 48.6945752 12.51831055 50.13500977 C12.60813305 53.79507926 12.5111952 56.79936848 11.52734375 60.3359375 C4.01100275 68.07847016 -8.09231812 71.15292177 -18.59765625 71.5859375 C-30.2360635 71.40930063 -39.6350178 67.49487879 -47.72265625 59.2734375 C-55.70662528 49.68638807 -56.53007539 38.44171805 -55.70019531 26.44238281 C-54.68182572 17.01481535 -50.69411049 8.73558896 -43.4375 2.62109375 C-31.30005489 -6.13413562 -12.88862088 -8.6738586 0 0 Z " fill="#000000" transform="translate(1701.47265625,793.6640625)"/>
<path d="M0 0 C7.67237889 6.31115037 12.97319971 14.55783274 13.97753906 24.58398438 C14.78124989 37.49390543 14.00980704 49.14928541 5.5 59.53125 C-1.65116652 66.81011592 -10.18050966 69.7344533 -20.1875 70.6875 C-31.58101222 70.12601274 -39.81498827 66.23940313 -47.5 58 C-55.43936775 48.24344726 -56.27564757 36.43404993 -55.25 24.3125 C-53.51302075 14.61262193 -49.84009084 6.48259992 -41.8203125 0.5 C-29.10251332 -7.54043231 -12.75583683 -8.84951251 0 0 Z M-38.51953125 11.1953125 C-45.4719804 19.70146924 -45.26355686 30.90050677 -44.25 41.3125 C-43.38555527 44.71942923 -42.19279527 47.39512219 -40.25 50.3125 C-39.88777344 50.88226562 -39.52554687 51.45203125 -39.15234375 52.0390625 C-36.04575293 56.31457394 -32.26825595 58.88101032 -27.25 60.3125 C-19.62342794 61.24675508 -12.49803195 61.16257046 -6.25 56.3125 C1.12500292 49.50998589 3.21730634 42.40444414 3.74609375 32.59375 C3.75699781 23.43434215 1.38999018 16.29578301 -4.88671875 9.5546875 C-9.49631461 5.26620955 -13.83653257 3.68352907 -20.125 3 C-27.3915262 3.72665262 -33.21645276 6.09334876 -38.51953125 11.1953125 Z " fill="#000000" transform="translate(1942.25,794.6875)"/>
<path d="M0 0 C17.49 0 34.98 0 53 0 C53 3.3 53 6.6 53 10 C39.14 10 25.28 10 11 10 C11 16.93 11 23.86 11 31 C23.87 31 36.74 31 50 31 C50 33.97 50 36.94 50 40 C37.13 40 24.26 40 11 40 C11 47.92 11 55.84 11 64 C25.52 64 40.04 64 55 64 C55 66.97 55 69.94 55 73 C36.85 73 18.7 73 0 73 C0 48.91 0 24.82 0 0 Z " fill="#000000" transform="translate(1252,790)"/>
<path d="M0 0 C3.77055043 4.11332774 6.30098499 8.57310127 6.3125 14.25 C6.23 15.24 6.1475 16.23 6.0625 17.25 C2.7625 17.25 -0.5375 17.25 -3.9375 17.25 C-4.5234375 15.296875 -5.109375 13.34375 -5.6953125 11.390625 C-7.55526712 8.18542019 -9.67605101 6.96055017 -12.9375 5.25 C-16.61545799 4.69518551 -16.61545799 4.69518551 -20.4375 4.875 C-22.34015625 4.89433594 -22.34015625 4.89433594 -24.28125 4.9140625 C-27.85407502 5.24233488 -30.66621982 5.78186522 -33.9375 7.25 C-34.79856669 9.83320006 -35.15403619 11.58321624 -35.25 14.25 C-35.28738281 14.930625 -35.32476563 15.61125 -35.36328125 16.3125 C-35.10168986 18.39744208 -35.10168986 18.39744208 -33.25512695 19.77026367 C-30.64921618 21.4340607 -28.42654583 22.11820459 -25.4296875 22.86328125 C-24.35976563 23.14236328 -23.28984375 23.42144531 -22.1875 23.70898438 C-19.96230745 24.27172115 -17.73576205 24.82913901 -15.5078125 25.38085938 C-7.49327429 27.48515499 1.87076652 30.20458167 6.625 37.5625 C9.23676161 44.2622363 9.97420828 50.21695754 7.3203125 57.04296875 C3.7637332 63.28355044 -1.62420936 67.20218512 -8.4375 69.25 C-18.72568884 71.46789885 -29.73367401 70.65368733 -39.1171875 65.58203125 C-43.71530459 62.21731467 -47.52173592 56.77147992 -48.9375 51.25 C-49.01396165 48.9179198 -49.02893299 46.58154122 -48.9375 44.25 C-45.6375 44.25 -42.3375 44.25 -38.9375 44.25 C-38.256875 46.5703125 -38.256875 46.5703125 -37.5625 48.9375 C-35.87647749 53.09360444 -34.37791322 55.18940103 -30.4375 57.375 C-23.57622968 60.23301806 -15.88727073 60.66288762 -8.875 58 C-5.13395633 55.80878476 -5.13395633 55.80878476 -2.9375 52.25 C-2.4253273 49.45894653 -2.1253495 46.98566484 -2.9375 44.25 C-6.44487537 40.98778727 -9.4446988 39.5264914 -14.05078125 38.3203125 C-15.21673828 37.99933594 -16.38269531 37.67835938 -17.58398438 37.34765625 C-20.01511421 36.70263619 -22.44740157 36.06196226 -24.88085938 35.42578125 C-33.07355117 33.1598136 -39.34244119 30.54087665 -44.875 23.9375 C-46.99475673 18.57576238 -47.65893255 13.51817115 -45.75 8 C-43.08297443 1.99919247 -39.88135694 -1.11719465 -34.03515625 -3.953125 C-22.60033879 -8.297078 -10.26059905 -6.11269731 0 0 Z " fill="#000000" transform="translate(993.9375,794.75)"/>
<path d="M0 0 C5.16770022 4.11042544 7.75199605 8.46881469 8.62109375 15.05078125 C8.77578125 16.84515625 8.77578125 16.84515625 8.93359375 18.67578125 C5.63359375 18.67578125 2.33359375 18.67578125 -1.06640625 18.67578125 C-1.91276042 16.72265625 -2.75911458 14.76953125 -3.60546875 12.81640625 C-5.68213486 9.77359067 -7.81966595 8.40228315 -11.06640625 6.67578125 C-14.74089147 6.04740709 -14.74089147 6.04740709 -18.56640625 6.17578125 C-19.83484375 6.16546875 -21.10328125 6.15515625 -22.41015625 6.14453125 C-26.60711931 6.7543464 -28.79065285 8.03149839 -32.06640625 10.67578125 C-33.48682446 13.51661766 -33.38092897 15.53055403 -33.06640625 18.67578125 C-30.11958926 22.42683739 -27.38962188 23.46307004 -22.83203125 24.60546875 C-21.61773438 24.92644531 -20.4034375 25.24742187 -19.15234375 25.578125 C-16.61159189 26.2223686 -14.06993195 26.86304234 -11.52734375 27.5 C-2.72382771 29.83581662 4.59858272 32.36807972 9.43359375 40.48828125 C12.03273856 46.59163021 11.74679312 52.20851863 9.43359375 58.36328125 C6.59653762 64.13835637 1.93497756 67.17508935 -3.69140625 69.98828125 C-13.1522845 72.72695653 -24.23182028 72.84215412 -33.30078125 68.640625 C-39.90595129 64.77933198 -43.93964686 59.85249585 -46.5859375 52.703125 C-47.06640625 50.67578125 -47.06640625 50.67578125 -47.06640625 45.67578125 C-43.76640625 45.67578125 -40.46640625 45.67578125 -37.06640625 45.67578125 C-36.50953125 47.07828125 -35.95265625 48.48078125 -35.37890625 49.92578125 C-33.076769 55.07125994 -30.58354684 57.44790779 -25.50390625 59.92578125 C-17.82400602 61.60139585 -10.61990574 61.67890756 -3.58984375 57.94140625 C-1.65348198 56.33273648 -0.90874372 55.04807863 -0.06640625 52.67578125 C-0.03662881 50.30276736 -0.03662881 50.30276736 -0.44140625 47.92578125 C-0.55226563 47.1265625 -0.663125 46.32734375 -0.77734375 45.50390625 C-0.92042969 44.59898437 -0.92042969 44.59898437 -1.06640625 43.67578125 C-4.68444563 42.17269871 -8.31705095 40.93496123 -12.06640625 39.80078125 C-13.20464844 39.45144531 -14.34289063 39.10210938 -15.515625 38.7421875 C-17.84562549 38.04241838 -20.18155245 37.36202825 -22.5234375 36.703125 C-37.92974401 32.27313931 -37.92974401 32.27313931 -42.56640625 25.55078125 C-45.37466464 19.84689643 -44.8985607 13.27014514 -43.00390625 7.36328125 C-33.41836084 -5.93279786 -13.86381907 -8.88437555 0 0 Z " fill="#000000" transform="translate(1521.06640625,793.32421875)"/>
<path d="M0 0 C4.44766131 3.4067193 7.12885853 7.75466899 9 13 C9.25 16.5 9.25 16.5 9 19 C5.7 19 2.4 19 -1 19 C-1.84635417 16.75390625 -2.69270833 14.5078125 -3.5390625 12.26171875 C-5.5707946 9.1163367 -7.51596403 8.30341013 -11 7 C-14.45057413 6.52940335 -14.45057413 6.52940335 -18 6.625 C-19.175625 6.61726562 -20.35125 6.60953125 -21.5625 6.6015625 C-25.94058133 7.10902193 -29.63194879 8.27506586 -32.4375 11.8125 C-33.254571 14.98999833 -33.0400669 16.87979929 -32 20 C-26.12445733 25.00689932 -18.9464121 25.96268275 -11.5859375 27.62304688 C-2.22901383 29.87042317 4.26647434 33.18155592 10 41 C12.22615948 45.45231896 11.50284649 51.16928374 11 56 C8.49152184 62.65111015 3.80874153 66.64578533 -2.5 69.6875 C-12.59489345 73.47308504 -22.92665472 72.69078491 -33 69 C-38.91877745 65.81889811 -42.11924406 61.99197234 -45 56 C-45.33 55.34 -45.66 54.68 -46 54 C-46.13415472 51.3276379 -46.04318541 48.67749512 -46 46 C-42.7 46 -39.4 46 -36 46 C-35.608125 47.4025 -35.21625 48.805 -34.8125 50.25 C-33.37513161 54.52852181 -32.00581356 56.67103863 -28 59 C-21.91309425 61.96922232 -13.95251089 62.26157187 -7.515625 60.20703125 C-3.90179488 58.48584573 -2.27192985 57.40789477 0 54 C0.51352965 50.03848557 0.59350491 47.86964956 -1.6875 44.52734375 C-6.14237131 40.35797014 -12.71276571 39.44815172 -18.4375 37.9375 C-29.01363867 35.10410476 -36.40009418 33.0512994 -43 24 C-44.98872581 19.25765385 -44.44117386 13.76217133 -42.9375 8.9375 C-40.68502449 3.55658629 -37.01550397 0.4044087 -31.77734375 -2.03515625 C-21.16290268 -5.74589581 -9.99359017 -5.15743655 0 0 Z " fill="#000000" transform="translate(1408,793)"/>
<path d="M0 0 C3.3 0 6.6 0 10 0 C10.01458252 1.46751709 10.02916504 2.93503418 10.04418945 4.44702148 C10.10240737 9.92089519 10.17963888 15.39436762 10.26245117 20.86791992 C10.2955902 23.23146016 10.32365602 25.59507745 10.34643555 27.95874023 C10.38018423 31.36735694 10.43251129 34.77527463 10.48828125 38.18359375 C10.49467117 39.23083115 10.5010611 40.27806854 10.50764465 41.35704041 C10.65343217 48.72485446 11.07158096 56.07158096 16.5 61.5 C22.02729738 64.81637843 27.73119571 64.55546367 34 64 C37.12232867 63.17729118 39.66013896 62.24964953 42 60 C45.45709196 53.73942504 45.45568011 48.02647028 45.4765625 40.9765625 C45.49214203 39.83464447 45.50772156 38.69272644 45.52377319 37.51620483 C45.57113981 33.88580958 45.59902243 30.25560592 45.625 26.625 C45.6614566 22.97310404 45.70198905 19.32131757 45.74765015 15.66952515 C45.77494339 13.40040506 45.79626547 11.13120415 45.81118774 8.86196899 C45.82658096 7.3343544 45.82658096 7.3343544 45.84228516 5.77587891 C45.84878082 4.87543854 45.85527649 3.97499817 45.86196899 3.04727173 C46 1 46 1 47 0 C48.68608966 -0.07205511 50.37500659 -0.08386068 52.0625 -0.0625 C52.98160156 -0.05347656 53.90070312 -0.04445313 54.84765625 -0.03515625 C55.55792969 -0.02355469 56.26820313 -0.01195312 57 0 C57.07646293 7.22242401 57.12877249 14.44474246 57.16479492 21.66748047 C57.17982224 24.12129619 57.2002498 26.57508533 57.22631836 29.02880859 C57.2629682 32.56875192 57.27978755 36.10833814 57.29296875 39.6484375 C57.30845261 40.73426117 57.32393646 41.82008484 57.33988953 42.93881226 C57.34186522 52.00950625 56.10339842 60.9068613 50 68 C42.49706062 74.12171645 33.51165379 75.93904862 24 75 C15.62576171 73.78152618 9.5601073 71.55198574 4 65 C0.67789247 59.64176205 -0.12810549 54.70104631 -0.11352539 48.4753418 C-0.11344986 47.39459885 -0.11337433 46.3138559 -0.11329651 45.20036316 C-0.10813522 44.0449855 -0.10297394 42.88960785 -0.09765625 41.69921875 C-0.0962413 40.50770706 -0.09482635 39.31619537 -0.09336853 38.08857727 C-0.08777728 34.28819249 -0.07522632 30.48786693 -0.0625 26.6875 C-0.05748387 24.10872481 -0.05292116 21.5299487 -0.04882812 18.95117188 C-0.0378107 12.63409182 -0.02055201 6.31705594 0 0 Z " fill="#000000" transform="translate(2014,790)"/>
<path d="M0 0 C42.83200867 0 42.83200867 0 49.52734375 5.4765625 C54.07902651 10.18519983 55.27301587 14.89969714 55.5625 21.375 C55.34540729 27.82040783 53.82049469 32.78200857 50 38 C42.06420926 44.9006876 33.01558871 44.25965418 23.0625 44.125 C18.751875 44.08375 14.44125 44.0425 10 44 C10 53.57 10 63.14 10 73 C6.7 73 3.4 73 0 73 C0 48.91 0 24.82 0 0 Z M10 10 C10 18.25 10 26.5 10 35 C14.9190625 35.0928125 14.9190625 35.0928125 19.9375 35.1875 C20.95191162 35.21481201 21.96632324 35.24212402 23.01147461 35.27026367 C30.19264296 35.33507189 36.82892347 34.55232989 42.5625 29.9375 C44.68359166 25.60309531 44.8915518 21.72975786 44 17 C42.09704729 13.38293722 39.93956929 11.31318976 36 10 C34.0079697 9.91708047 32.01326287 9.89261823 30.01953125 9.90234375 C28.27446289 9.90717773 28.27446289 9.90717773 26.49414062 9.91210938 C24.67172852 9.92467773 24.67172852 9.92467773 22.8125 9.9375 C20.97268555 9.94426758 20.97268555 9.94426758 19.09570312 9.95117188 C16.06378135 9.96296924 13.0318846 9.98090486 10 10 Z " fill="#000000" transform="translate(2132,790)"/>
<path d="M0 0 C3.3 0 6.6 0 10 0 C10.01981934 1.33587158 10.03963867 2.67174316 10.06005859 4.0480957 C10.13666786 9.04859899 10.22529597 14.04883206 10.31738281 19.04907227 C10.3554456 21.2049421 10.39033616 23.36087055 10.421875 25.5168457 C10.46802269 28.63253601 10.52593047 31.74783059 10.5859375 34.86328125 C10.59748871 35.81270096 10.60903992 36.76212067 10.62094116 37.74031067 C10.71024875 49.58104426 10.71024875 49.58104426 15.3125 60.0625 C21.27779507 64.36306157 26.83896323 64.66685873 34 64 C37.46668232 63.14271574 40.12541612 61.78410968 42.8125 59.375 C46.34264387 52.31471226 46.32508117 44.35118187 46.4140625 36.62109375 C46.43342865 35.56841812 46.4527948 34.51574249 46.4727478 33.4311676 C46.53207747 30.10002506 46.57874133 26.76884708 46.625 23.4375 C46.66322272 21.16600134 46.70227689 18.89451651 46.7421875 16.62304688 C46.83774032 11.08214482 46.92194187 5.54117501 47 0 C50.3 0 53.6 0 57 0 C57.09939933 7.48897498 57.17172015 14.97755991 57.21972656 22.46704102 C57.23975435 25.01105444 57.26698464 27.55502235 57.30175781 30.09887695 C57.3506643 33.77045983 57.3730582 37.44143033 57.390625 41.11328125 C57.41127014 42.23769119 57.43191528 43.36210114 57.45318604 44.52058411 C57.45539385 52.4149577 56.6387656 60.72393105 51.32159424 66.97236633 C44.41719363 73.42694807 35.77133504 75.37792527 26.55859375 75.20703125 C18.34899857 74.5427434 11.51945142 72.77266997 5.5546875 66.89453125 C-0.76272899 59.19617197 -0.1416325 49.46662581 -0.09765625 40.0390625 C-0.0962413 38.89335785 -0.09482635 37.7476532 -0.09336853 36.56723022 C-0.0877858 32.91979322 -0.07523641 29.27241835 -0.0625 25.625 C-0.05748277 23.14713631 -0.05292025 20.66927165 -0.04882812 18.19140625 C-0.03782201 12.12758035 -0.0205692 6.0638007 0 0 Z " fill="#000000" transform="translate(830,790)"/>
<path d="M0 0 C3.3 0 6.6 0 10 0 C11 1 11 1 11.12025452 3.85365295 C11.1169236 5.76893044 11.1169236 5.76893044 11.11352539 7.72290039 C11.11367142 8.4253035 11.11381744 9.1277066 11.1139679 9.85139465 C11.11326872 12.18351278 11.10547617 14.515552 11.09765625 16.84765625 C11.09579208 18.46048438 11.09436818 20.07331307 11.09336853 21.68614197 C11.08954323 25.93915357 11.07971285 30.19213124 11.06866455 34.44512939 C11.05845069 38.7817743 11.05387096 43.11842467 11.04882812 47.45507812 C11.03809059 55.97006769 11.02101403 64.48502963 11 73 C7.37 73 3.74 73 0 73 C0 48.91 0 24.82 0 0 Z " fill="#000000" transform="translate(1062,790)"/>
</svg>
